<svg width="160" height="160" viewBox="0 0 160 160" fill="none" xmlns="http://www.w3.org/2000/svg">
    <rect width="160" height="160" rx="80" fill="#3700B3"/>
    <path d="M87.7093 75.5313C89.4099 75.422 90.9949 74.6313 92.1056 73.3378C92.642 72.6492 92.5262 71.6571 91.8463 71.1092C91.5206 70.8371 91.0985 70.7085 90.6763 70.7535C90.2542 70.7978 89.8685 71.0121 89.6064 71.3463C89.0928 71.917 88.3535 72.232 87.5857 72.207C86.8179 72.1827 86.1 71.8206 85.6242 71.2178C85.3293 70.9085 84.9207 70.7335 84.4929 70.7335C84.0657 70.7335 83.6565 70.9085 83.3615 71.2178C82.7372 71.8427 82.7372 72.8556 83.3615 73.4805C84.4822 74.7126 86.0457 75.4498 87.7091 75.5312L87.7093 75.5313Z" fill="white"/>
    <path d="M75.9666 73.337C76.5031 72.6485 76.3881 71.6564 75.7074 71.1085C75.3817 70.8371 74.9595 70.7085 74.5374 70.7535C74.1153 70.7978 73.7296 71.0113 73.4674 71.3456C72.9539 71.9163 72.2146 72.2313 71.4468 72.2063C70.679 72.182 69.9618 71.8199 69.4853 71.217C69.1904 70.9078 68.7818 70.7328 68.354 70.7328C67.9268 70.7328 67.5183 70.9078 67.2233 71.217C66.5983 71.842 66.5983 72.8548 67.2233 73.4798C68.3447 74.7126 69.9095 75.4504 71.5746 75.5305C73.2745 75.4197 74.8573 74.6291 75.9666 73.337L75.9666 73.337Z" fill="white"/>
    <path d="M83.9371 82.0133C84.5571 81.384 84.55 80.3712 83.9207 79.7505C83.6236 79.4441 83.2136 79.2727 82.7865 79.2755C82.3593 79.2791 81.9522 79.4562 81.6586 79.7669C81.1251 80.3369 80.3787 80.6605 79.5979 80.6605C78.8172 80.6605 78.0708 80.3369 77.5372 79.7669C77.2436 79.4562 76.8365 79.2791 76.4094 79.2755C75.9823 79.2727 75.5723 79.4441 75.2752 79.7505C74.6459 80.3712 74.6387 81.384 75.2587 82.0133C76.3808 83.2161 77.9528 83.8988 79.5977 83.8988C81.2427 83.8988 82.8148 83.216 83.9368 82.0133H83.9371Z" fill="white"/>
    <path d="M49.8576 104.213C42.4286 109.147 37.9745 117.482 38.0001 126.4C38.0001 126.824 38.1687 127.231 38.4687 127.531C38.7686 127.831 39.1758 128 39.6 128H119.597C120.021 128 120.428 127.831 120.728 127.531C121.028 127.231 121.197 126.824 121.197 126.4C121.222 117.482 116.768 109.148 109.339 104.213C104.145 100.881 98.6305 98.0763 92.8779 95.8406C91.4487 94.0742 90.3067 92.0936 89.4923 89.9722C92.0799 88.7715 94.3021 86.9052 95.9328 84.5646C97.5627 82.2239 98.5426 79.4927 98.7719 76.6492C100.584 76.2842 102.215 75.3028 103.385 73.8721C104.557 72.4421 105.197 70.6501 105.197 68.8016C105.197 68.8016 105.125 55.65 105.197 51.2667C105.373 40.4672 92.3164 31.8005 79.5983 32.0035C65.4852 32.2292 53.9993 40.6431 53.9993 51.2667V68.8016C54.0022 70.6508 54.645 72.4422 55.8185 73.8708C56.9921 75.3 58.6242 76.2793 60.4377 76.6413C60.667 79.4848 61.6462 82.2161 63.2768 84.5567C64.9074 86.8974 67.1294 88.7637 69.7173 89.9636C68.9002 92.0892 67.7531 94.072 66.3189 95.8406C60.5662 98.0763 55.0522 100.881 49.8574 104.213H49.8576ZM41.2543 124.8C41.7136 117.903 45.2099 111.566 50.7996 107.5V112.228C49.4296 112.581 48.2161 113.379 47.3476 114.495C46.479 115.613 46.0048 116.985 45.9998 118.4V121.6C45.9998 122.024 46.1683 122.431 46.4683 122.731C46.7683 123.031 47.1754 123.2 47.5997 123.2H49.1996C50.0832 123.2 50.7996 122.484 50.7996 121.6C50.7996 120.717 50.0832 120 49.1996 120V118.4C49.1996 117.257 49.8096 116.2 50.7996 115.629C51.7895 115.058 53.0095 115.058 53.9995 115.629C54.9894 116.2 55.5994 117.257 55.5994 118.4V120C54.7159 120 53.9995 120.717 53.9995 121.6C53.9995 122.484 54.7159 123.2 55.5994 123.2H57.1993C57.6236 123.2 58.0307 123.031 58.3307 122.731C58.6307 122.431 58.7993 122.024 58.7993 121.6V118.4C58.7943 116.985 58.32 115.612 57.4515 114.495C56.5829 113.379 55.3693 112.581 53.9994 112.228V105.392C54.913 104.843 55.8586 104.299 56.8523 103.759L55.713 106.606C55.5223 107.099 55.5852 107.654 55.8816 108.092C56.178 108.53 56.6708 108.795 57.1994 108.801H62.532L61.2635 113.153C61.0785 113.788 61.3035 114.471 61.8299 114.873L74.8594 124.8L41.2543 124.8ZM106.797 116.8C107.444 116.8 108.027 117.19 108.275 117.788C108.522 118.386 108.386 119.074 107.928 119.532C107.47 119.99 106.783 120.126 106.185 119.878C105.587 119.631 105.197 119.047 105.197 118.4C105.197 117.517 105.913 116.8 106.797 116.8ZM103.483 106.606L102.344 103.76C103.338 104.299 104.283 104.842 105.197 105.392V113.896V113.895C103.762 114.402 102.653 115.56 102.207 117.015C101.762 118.47 102.033 120.051 102.938 121.275C103.843 122.498 105.275 123.22 106.797 123.22C108.319 123.22 109.75 122.498 110.656 121.275C111.561 120.051 111.831 118.47 111.386 117.015C110.941 115.56 109.832 114.402 108.396 113.895V107.495C113.988 111.562 117.484 117.902 117.942 124.8H84.3432L97.3734 114.881H97.3727C97.8991 114.48 98.1241 113.796 97.9391 113.161L96.6641 108.801H101.997C102.525 108.795 103.018 108.53 103.315 108.092C103.611 107.655 103.674 107.099 103.483 106.606L103.483 106.606ZM98.0229 101.573L99.6343 105.601H94.5302C94.0281 105.605 93.5574 105.844 93.2567 106.245C92.9553 106.647 92.8589 107.166 92.996 107.649L94.5545 112.994L83.4157 121.474L92.8088 99.263C94.6281 100.023 96.3715 100.789 98.023 101.572L98.0229 101.573ZM79.5972 122.293L73.0839 106.894C77.4172 107.292 81.7771 107.292 86.1104 106.894L79.5972 122.293ZM98.7964 73.3076V67.6435L101.913 69.6278C101.764 70.4613 101.398 71.2413 100.851 71.8876C100.303 72.5333 99.5942 73.0233 98.7965 73.3075L98.7964 73.3076ZM60.3979 73.3076C59.0144 72.8141 57.9344 71.7127 57.4667 70.3206C58.4266 70.2499 59.4038 70.1327 60.3979 69.9684V73.3076ZM57.1981 67.1428V51.2671C57.1981 42.4031 67.2469 35.4213 79.5972 35.2034C90.4924 35.0112 102.168 42.2431 101.996 51.2671C101.926 54.9212 101.996 65.8872 101.996 65.8872L86.8561 56.2527V56.252C86.3318 55.9184 85.6619 55.9184 85.1376 56.252C84.9726 56.3577 69.226 66.2888 57.1982 67.1429L57.1981 67.1428ZM63.5978 76.0017V69.2948C71.4717 67.062 79.0036 63.7636 85.9841 59.4902L95.5965 65.6021V76.0017C95.5965 83.2351 88.4189 89.1212 79.5972 89.1212C70.7754 89.1212 63.5978 83.2351 63.5978 76.0017ZM72.6646 91.2011C77.1658 92.6925 82.0285 92.6925 86.5297 91.2011C87.4261 93.4546 88.6182 95.5787 90.0754 97.518L87.5155 103.555V103.554C82.2472 104.116 76.9345 104.116 71.666 103.554L69.1061 97.5173V97.518C70.5675 95.5795 71.7639 93.4553 72.6646 91.2011V91.2011ZM75.7794 121.479L64.6406 113L66.1991 107.654C66.3377 107.171 66.242 106.65 65.9412 106.247C65.6398 105.844 65.1677 105.606 64.6649 105.601H59.5608L61.1722 101.573C62.8235 100.791 64.5669 100.024 66.3863 99.2709L75.7794 121.479Z" fill="white"/>
    <path fill-rule="evenodd" clip-rule="evenodd" d="M23.1636 86C24.1126 86 24.8818 86.7693 24.8818 87.7182C24.8818 90.598 25.6438 93.1257 26.785 94.8814C27.9367 96.6533 29.3268 97.4545 30.6091 97.4545C31.558 97.4545 32.3273 98.2238 32.3273 99.1727C32.3273 100.122 31.558 100.891 30.6091 100.891C29.3268 100.891 27.9367 101.692 26.785 103.464C25.6438 105.22 24.8818 107.747 24.8818 110.627C24.8818 111.576 24.1126 112.345 23.1636 112.345C22.2147 112.345 21.4455 111.576 21.4455 110.627C21.4455 107.747 20.6835 105.22 19.5423 103.464C18.3905 101.692 17.0004 100.891 15.7182 100.891C14.7693 100.891 14 100.122 14 99.1727C14 98.2238 14.7693 97.4545 15.7182 97.4545C17.0004 97.4545 18.3905 96.6533 19.5423 94.8814C20.6835 93.1257 21.4455 90.598 21.4455 87.7182C21.4455 86.7693 22.2147 86 23.1636 86ZM23.1636 95.4572C22.9368 95.9114 22.6897 96.3446 22.4235 96.7542C21.8252 97.6746 21.1083 98.5031 20.2896 99.1727C21.1083 99.8423 21.8252 100.671 22.4235 101.591C22.6897 102.001 22.9368 102.434 23.1636 102.888C23.3904 102.434 23.6376 102.001 23.9038 101.591C24.502 100.671 25.219 99.8423 26.0377 99.1727C25.219 98.5031 24.502 97.6746 23.9038 96.7542C23.6376 96.3446 23.3904 95.9114 23.1636 95.4572Z" fill="white"/>
    <path fill-rule="evenodd" clip-rule="evenodd" d="M31.7364 56C32.6853 56 33.4545 56.7693 33.4545 57.7182C33.4545 60.7475 34.2762 63.4124 35.5145 65.2697C36.7607 67.139 38.2936 68.0273 39.7545 68.0273C40.7035 68.0273 41.4727 68.7965 41.4727 69.7455C41.4727 70.6944 40.7035 71.4636 39.7545 71.4636C38.2936 71.4636 36.7607 72.3519 35.5145 74.2212C34.2762 76.0785 33.4545 78.7434 33.4545 81.7727C33.4545 82.7216 32.6853 83.4909 31.7364 83.4909C30.7874 83.4909 30.0182 82.7216 30.0182 81.7727C30.0182 78.7434 29.1965 76.0785 27.9583 74.2212C26.7121 72.3519 25.1791 71.4636 23.7182 71.4636C22.7693 71.4636 22 70.6944 22 69.7455C22 68.7965 22.7693 68.0273 23.7182 68.0273C25.1791 68.0273 26.7121 67.139 27.9583 65.2697C29.1965 63.4124 30.0182 60.7475 30.0182 57.7182C30.0182 56.7693 30.7874 56 31.7364 56ZM31.7364 65.5691C31.4596 66.136 31.1526 66.6732 30.8175 67.1758C30.1591 68.1634 29.3711 69.0435 28.474 69.7455C29.3711 70.4474 30.1591 71.3275 30.8175 72.3151C31.1526 72.8177 31.4596 73.3549 31.7364 73.9218C32.0131 73.3549 32.3202 72.8177 32.6552 72.3151C33.3136 71.3275 34.1016 70.4474 34.9987 69.7455C34.1016 69.0435 33.3136 68.1634 32.6552 67.1758C32.3202 66.6732 32.0131 66.136 31.7364 65.5691Z" fill="white"/>
    <path fill-rule="evenodd" clip-rule="evenodd" d="M122.173 28C123.122 28 123.891 28.7693 123.891 29.7182C123.891 34.1709 125.097 38.1244 126.957 40.9145C128.825 43.7166 131.217 45.1818 133.627 45.1818C134.576 45.1818 135.345 45.9511 135.345 46.9C135.345 47.8489 134.576 48.6182 133.627 48.6182C131.217 48.6182 128.825 50.0834 126.957 52.8855C125.097 55.6756 123.891 59.6291 123.891 64.0818C123.891 65.0307 123.122 65.8 122.173 65.8C121.224 65.8 120.455 65.0307 120.455 64.0818C120.455 59.6291 119.248 55.6756 117.388 52.8855C115.52 50.0834 113.128 48.6182 110.718 48.6182C109.769 48.6182 109 47.8489 109 46.9C109 45.9511 109.769 45.1818 110.718 45.1818C113.128 45.1818 115.52 43.7166 117.388 40.9145C119.248 38.1244 120.455 34.1709 120.455 29.7182C120.455 28.7693 121.224 28 122.173 28ZM122.173 39.1085C121.64 40.4557 120.993 41.7025 120.247 42.8206C119.145 44.4736 117.796 45.8842 116.253 46.9C117.796 47.9158 119.145 49.3264 120.247 50.9794C120.993 52.0975 121.64 53.3443 122.173 54.6915C122.706 53.3443 123.353 52.0975 124.098 50.9794C125.2 49.3264 126.55 47.9158 128.093 46.9C126.55 45.8842 125.2 44.4736 124.098 42.8206C123.353 41.7025 122.706 40.4557 122.173 39.1085Z" fill="white"/>
</svg>
