<svg width="160" height="160" viewBox="0 0 160 160" fill="none" xmlns="http://www.w3.org/2000/svg">
    <rect width="160" height="160" rx="80" fill="#F9AA33"/>
    <path d="M111.509 124.383H94.1662C103.069 119.439 109.098 109.974 109.098 99.1022C109.098 89.1144 103.873 79.7895 95.4124 74.5236V43.9974H97.4221C98.4269 43.9974 99.2308 43.1936 99.2308 42.1888V33.8087C99.2308 32.8039 98.4269 32 97.4221 32H62.9161C61.9113 32 61.1075 32.8039 61.1075 33.8087V42.1888C61.1075 43.1936 61.9113 43.9974 62.9161 43.9974H64.9259V74.5236C56.4653 79.7888 51.2404 89.0935 51.2404 99.1022C51.2404 109.974 57.2692 119.46 66.172 124.383H48.8088C47.804 124.383 47.0001 125.186 47.0001 126.191C47.0001 127.196 47.804 128 48.8088 128H111.489C112.494 128 113.298 127.196 113.298 126.191C113.298 125.186 112.494 124.383 111.509 124.383H111.509ZM64.7262 35.6172H95.6143V40.38H64.7262V35.6172ZM67.62 77.1161C68.1827 76.7946 68.5244 76.1917 68.5244 75.5486V43.9972H91.7763V75.5486C91.7763 76.1917 92.118 76.7946 92.6807 77.1161C99.8953 81.2359 104.598 88.6314 105.341 96.811C97.8654 98.901 89.5255 104.789 87.8173 106.015C83.0747 109.452 75.0964 105.03 70.8762 101.212C68.2838 98.8808 62.9382 97.3536 54.9599 96.6702C55.7638 88.5512 60.4663 81.2163 67.6205 77.1169L67.62 77.1161ZM54.8789 100.287C61.6715 100.89 66.5749 102.176 68.4641 103.885C72.7246 107.743 78.5726 110.838 83.7775 110.838C86.0083 110.838 88.1384 110.275 89.9673 108.949C94.0668 105.975 100.257 102.237 105.421 100.589C104.658 113.852 93.6248 124.403 80.161 124.403C66.596 124.383 55.5034 113.672 54.8806 100.287L54.8789 100.287Z" fill="white"/>
    <path d="M73.628 96.2267C77.406 96.2267 80.5009 93.1521 80.5009 89.3739C80.5009 85.5957 77.4262 82.521 73.628 82.521C69.8298 82.521 66.7551 85.5756 66.7551 89.3538C66.7551 93.132 69.85 96.2267 73.628 96.2267V96.2267ZM73.628 86.1182C75.4166 86.1182 76.8836 87.5651 76.8836 89.3536C76.8836 91.1421 75.4367 92.5891 73.628 92.5891C71.8394 92.5891 70.3723 91.1421 70.3723 89.3536C70.3723 87.5651 71.8394 86.1182 73.628 86.1182Z" fill="white"/>
    <path d="M90.0267 94.2589C92.7196 94.2589 94.9101 92.0684 94.9101 89.3755C94.9101 86.6827 92.7196 84.4922 90.0267 84.4922C87.3339 84.4922 85.1434 86.6827 85.1434 89.3755C85.1233 92.0684 87.3339 94.2589 90.0267 94.2589ZM90.0267 88.0894C90.7301 88.0894 91.2928 88.6521 91.2928 89.3554C91.2928 90.0588 90.7301 90.6215 90.0267 90.6215C89.3234 90.6215 88.7607 90.0588 88.7607 89.3554C88.7406 88.6721 89.3234 88.0894 90.0267 88.0894Z" fill="white"/>
    <path d="M86.8315 112.646C84.5405 112.646 82.6715 114.514 82.6715 116.785C82.6715 119.076 84.5405 120.925 86.8315 120.925C89.1225 120.925 90.9915 119.056 90.9915 116.785C90.9714 114.514 89.1225 112.646 86.8315 112.646ZM86.8315 117.328C86.5301 117.328 86.2889 117.087 86.2889 116.805C86.2889 116.504 86.5301 116.283 86.8315 116.283C87.1329 116.283 87.3741 116.524 87.3741 116.805C87.354 117.087 87.1128 117.328 86.8315 117.328Z" fill="white"/>
    <path d="M70.9142 111.46C68.6231 111.46 66.7542 113.329 66.7542 115.6C66.7542 117.891 68.6231 119.74 70.9142 119.74C73.2052 119.74 75.054 117.871 75.054 115.6C75.0741 113.309 73.2052 111.46 70.9142 111.46ZM70.9142 116.123C70.6127 116.123 70.3716 115.882 70.3716 115.6C70.3716 115.299 70.6127 115.078 70.9142 115.078C71.2156 115.078 71.4367 115.319 71.4367 115.6C71.4568 115.882 71.2156 116.123 70.9142 116.123Z" fill="white"/>
    <path d="M81.2646 70.022C83.5556 70.022 85.4246 68.1531 85.4246 65.8822C85.4246 63.5912 83.5556 61.7424 81.2646 61.7424C78.9736 61.7424 77.1248 63.6114 77.1248 65.8822C77.1248 68.1531 78.9736 70.022 81.2646 70.022ZM81.2646 65.3397C81.566 65.3397 81.8072 65.5808 81.8072 65.8622C81.8072 66.1636 81.566 66.3847 81.2646 66.3847C80.9631 66.3847 80.7421 66.1435 80.7421 65.8622C80.7421 65.5808 80.9832 65.3397 81.2646 65.3397Z" fill="white"/>
    <path fill-rule="evenodd" clip-rule="evenodd" d="M25.1636 94.4C26.1126 94.4 26.8818 95.1693 26.8818 96.1182C26.8818 98.998 27.6438 101.526 28.785 103.281C29.9367 105.053 31.3268 105.855 32.6091 105.855C33.558 105.855 34.3273 106.624 34.3273 107.573C34.3273 108.522 33.558 109.291 32.6091 109.291C31.3268 109.291 29.9367 110.092 28.785 111.864C27.6438 113.62 26.8818 116.147 26.8818 119.027C26.8818 119.976 26.1126 120.745 25.1636 120.745C24.2147 120.745 23.4455 119.976 23.4455 119.027C23.4455 116.147 22.6835 113.62 21.5423 111.864C20.3905 110.092 19.0004 109.291 17.7182 109.291C16.7693 109.291 16 108.522 16 107.573C16 106.624 16.7693 105.855 17.7182 105.855C19.0004 105.855 20.3905 105.053 21.5423 103.281C22.6835 101.526 23.4455 98.998 23.4455 96.1182C23.4455 95.1693 24.2147 94.4 25.1636 94.4ZM25.1636 103.857C24.9368 104.311 24.6897 104.745 24.4235 105.154C23.8252 106.075 23.1083 106.903 22.2896 107.573C23.1083 108.242 23.8252 109.071 24.4235 109.991C24.6897 110.401 24.9368 110.834 25.1636 111.288C25.3904 110.834 25.6376 110.401 25.9038 109.991C26.502 109.071 27.219 108.242 28.0377 107.573C27.219 106.903 26.502 106.075 25.9038 105.154C25.6376 104.745 25.3904 104.311 25.1636 103.857Z" fill="white"/>
    <path fill-rule="evenodd" clip-rule="evenodd" d="M35.3364 35.2C36.2853 35.2 37.0545 35.9693 37.0545 36.9182C37.0545 39.9475 37.8762 42.6124 39.1144 44.4697C40.3607 46.339 41.8936 47.2273 43.3545 47.2273C44.3035 47.2273 45.0727 47.9965 45.0727 48.9455C45.0727 49.8944 44.3035 50.6636 43.3545 50.6636C41.8936 50.6636 40.3607 51.5519 39.1144 53.4212C37.8762 55.2785 37.0545 57.9434 37.0545 60.9727C37.0545 61.9216 36.2853 62.6909 35.3364 62.6909C34.3874 62.6909 33.6182 61.9216 33.6182 60.9727C33.6182 57.9434 32.7965 55.2785 31.5583 53.4212C30.3121 51.5519 28.7791 50.6636 27.3182 50.6636C26.3693 50.6636 25.6 49.8944 25.6 48.9455C25.6 47.9965 26.3693 47.2273 27.3182 47.2273C28.7791 47.2273 30.3121 46.339 31.5583 44.4697C32.7965 42.6124 33.6182 39.9475 33.6182 36.9182C33.6182 35.9693 34.3874 35.2 35.3364 35.2ZM35.3364 44.7691C35.0596 45.336 34.7526 45.8732 34.4175 46.3758C33.7591 47.3634 32.9711 48.2435 32.074 48.9455C32.9711 49.6474 33.7591 50.5275 34.4175 51.5151C34.7526 52.0177 35.0596 52.5549 35.3364 53.1218C35.6131 52.5549 35.9202 52.0177 36.2552 51.5151C36.9136 50.5275 37.7016 49.6474 38.5987 48.9455C37.7016 48.2435 36.9136 47.3634 36.2552 46.3758C35.9202 45.8732 35.6131 45.336 35.3364 44.7691Z" fill="white"/>
    <path fill-rule="evenodd" clip-rule="evenodd" d="M122.173 27.2C123.122 27.2 123.891 27.9692 123.891 28.9181C123.891 33.3709 125.097 37.3243 126.957 40.1144C128.825 42.9166 131.217 44.3818 133.627 44.3818C134.576 44.3818 135.345 45.151 135.345 46.1C135.345 47.0489 134.576 47.8181 133.627 47.8181C131.217 47.8181 128.825 49.2833 126.957 52.0855C125.097 54.8756 123.891 58.829 123.891 63.2818C123.891 64.2307 123.122 65 122.173 65C121.224 65 120.455 64.2307 120.455 63.2818C120.455 58.829 119.248 54.8756 117.388 52.0855C115.52 49.2833 113.128 47.8181 110.718 47.8181C109.769 47.8181 109 47.0489 109 46.1C109 45.151 109.769 44.3818 110.718 44.3818C113.128 44.3818 115.52 42.9166 117.388 40.1144C119.248 37.3243 120.455 33.3709 120.455 28.9181C120.455 27.9692 121.224 27.2 122.173 27.2ZM122.173 38.3084C121.64 39.6557 120.993 40.9024 120.247 42.0206C119.145 43.6735 117.796 45.0841 116.253 46.1C117.796 47.1158 119.145 48.5264 120.247 50.1793C120.993 51.2975 121.64 52.5442 122.173 53.8915C122.706 52.5442 123.353 51.2975 124.098 50.1793C125.2 48.5264 126.55 47.1158 128.093 46.1C126.55 45.0841 125.2 43.6735 124.098 42.0206C123.353 40.9024 122.706 39.6557 122.173 38.3084Z" fill="white"/>
</svg>
