<svg width="36" height="36" viewBox="0 0 36 36" fill="none" xmlns="http://www.w3.org/2000/svg">
    <g clip-path="url(#clip0_76_963)">
        <path d="M35.997 17.967V18.0015C35.997 27.942 27.939 36 17.9985 36C13.8727 36.0066 9.87101 34.5893 6.669 31.9875L6.702 32.0145C6.51248 31.8607 6.3574 31.6687 6.2468 31.4511C6.13619 31.2334 6.07254 30.995 6.05995 30.7512C6.04737 30.5074 6.08613 30.2637 6.17374 30.0359C6.26134 29.808 6.39583 29.6011 6.5685 29.4285L7.386 28.611C7.68759 28.3065 8.0908 28.1238 8.51858 28.0978C8.94637 28.0718 9.36874 28.2043 9.705 28.47L9.702 28.467C12.0591 30.3431 14.9844 31.3613 17.997 31.3545C20.1761 31.3545 22.322 30.8213 24.2477 29.8014C26.1733 28.7814 27.8201 27.3058 29.0444 25.5032C30.2687 23.7006 31.0333 21.6257 31.2715 19.4597C31.5096 17.2937 31.2142 15.1023 30.4108 13.0768C29.6075 11.0512 28.3207 9.25294 26.6627 7.83894C25.0047 6.42495 23.0259 5.43815 20.8989 4.96463C18.7719 4.49112 16.5614 4.54528 14.4601 5.12239C12.3589 5.6995 10.4308 6.78202 8.844 8.27552L8.8515 8.26952L12.5355 11.9535C12.6978 12.116 12.8082 12.3229 12.8529 12.5481C12.8976 12.7734 12.8745 13.0068 12.7865 13.2189C12.6985 13.431 12.5496 13.6122 12.3586 13.7397C12.1676 13.8672 11.9431 13.9351 11.7135 13.935H1.1625C0.854583 13.935 0.559278 13.8127 0.341548 13.595C0.123818 13.3772 0.00149918 13.0819 0.00149918 12.774V2.22302C0.00209258 1.99372 0.0704864 1.76971 0.198076 1.57919C0.325666 1.38866 0.506753 1.24012 0.718554 1.15226C0.930356 1.06439 1.16341 1.04113 1.3884 1.08539C1.61339 1.12966 1.82027 1.23947 1.983 1.40102L5.5665 4.98452C8.91154 1.77933 13.3672 -0.00692255 18 2.01628e-05C27.9285 2.01628e-05 35.9805 8.04002 35.9985 17.964V17.9655L35.997 17.967ZM22.8675 23.6835L23.58 22.767C23.7208 22.5869 23.8247 22.3808 23.8857 22.1605C23.9467 21.9402 23.9636 21.71 23.9355 21.4831C23.9073 21.2562 23.8347 21.0372 23.7217 20.8384C23.6087 20.6397 23.4576 20.4652 23.277 20.325L23.2725 20.322L20.319 18.024V10.452C20.319 9.49052 19.539 8.70902 18.576 8.70902H17.415C16.4535 8.70902 15.672 9.48902 15.672 10.452V20.292L20.4195 23.9835C20.7831 24.2682 21.2447 24.3969 21.7031 24.3415C22.1615 24.2861 22.5792 24.0511 22.8645 23.688L22.8675 23.6835Z" fill="#6200EE"/>
    </g>
    <defs>
        <clipPath id="clip0_76_963">
            <rect width="36" height="36" fill="white"/>
        </clipPath>
    </defs>
</svg>
