<svg width="160" height="160" viewBox="0 0 160 160" fill="none" xmlns="http://www.w3.org/2000/svg">
    <g clip-path="url(#clip0_823_1752)">
        <path d="M160 80C160 35.8172 124.183 0 80 0C35.8172 0 0 35.8172 0 80C0 124.183 35.8172 160 80 160C124.183 160 160 124.183 160 80Z" fill="#008000"/>
        <path d="M82.175 34.56C76.4953 34.56 70.8713 35.6671 65.6239 37.818C60.3766 39.9689 55.6088 43.1215 51.5926 47.0958C43.4817 55.1224 38.925 66.0087 38.925 77.36C38.925 88.7113 43.4817 99.5976 51.5926 107.624C55.6088 111.599 60.3766 114.751 65.6239 116.902C70.8713 119.053 76.4953 120.16 82.175 120.16C93.6456 120.16 104.646 115.651 112.757 107.624C120.868 99.5976 125.425 88.7113 125.425 77.36C125.425 71.7394 124.306 66.1739 122.133 60.9811C119.959 55.7884 116.773 51.0702 112.757 47.0958C108.741 43.1215 103.973 39.9689 98.726 37.818C93.4787 35.6671 87.8547 34.56 82.175 34.56M82.175 43.12C91.3515 43.12 100.152 46.7274 106.641 53.1487C113.13 59.5699 116.775 68.279 116.775 77.36C116.775 87.632 112.45 96.62 105.097 103.04C99.0425 97.476 90.825 94.48 82.175 94.48C73.525 94.48 65.74 97.476 59.2525 103.04C51.9 96.62 47.575 87.632 47.575 77.36C47.575 68.279 51.2203 59.5699 57.7091 53.1487C64.1979 46.7274 72.9985 43.12 82.175 43.12M73.525 51.68C72.3779 51.68 71.2778 52.1309 70.4668 52.9336C69.6557 53.7362 69.2 54.8249 69.2 55.96C69.2 57.0951 69.6557 58.1838 70.4668 58.9864C71.2778 59.7891 72.3779 60.24 73.525 60.24C74.672 60.24 75.7721 59.7891 76.5832 58.9864C77.3943 58.1838 77.85 57.0951 77.85 55.96C77.85 54.8249 77.3943 53.7362 76.5832 52.9336C75.7721 52.1309 74.672 51.68 73.525 51.68ZM90.825 51.68C89.6779 51.68 88.5778 52.1309 87.7667 52.9336C86.9557 53.7362 86.5 54.8249 86.5 55.96C86.5 57.0951 86.9557 58.1838 87.7667 58.9864C88.5778 59.7891 89.6779 60.24 90.825 60.24C91.972 60.24 93.0721 59.7891 93.8832 58.9864C94.6943 58.1838 95.15 57.0951 95.15 55.96C95.15 54.8249 94.6943 53.7362 93.8832 52.9336C93.0721 52.1309 91.972 51.68 90.825 51.68ZM104.189 64.2632C103.627 64.2632 103.108 64.3916 102.502 64.52L88.6625 70.1696L87.4947 70.6404C85.0727 68.8 81.7857 68.2864 78.9312 69.442C74.5197 71.1968 72.3572 76.2044 74.1737 80.57C75.947 84.9356 81.0072 87.0756 85.4187 85.278C88.2732 84.1652 90.306 81.64 90.825 78.5584L91.8197 78.1304L105.746 72.5664L105.833 72.5236C108.125 71.6248 109.12 69.1424 108.255 66.9168C107.563 65.2904 105.962 64.2204 104.189 64.2632ZM60.55 64.52C59.4029 64.52 58.3028 64.9709 57.4918 65.7736C56.6807 66.5762 56.225 67.6649 56.225 68.8C56.225 69.9351 56.6807 71.0238 57.4918 71.8264C58.3028 72.6291 59.4029 73.08 60.55 73.08C61.697 73.08 62.7971 72.6291 63.6082 71.8264C64.4193 71.0238 64.875 69.9351 64.875 68.8C64.875 67.6649 64.4193 66.5762 63.6082 65.7736C62.7971 64.9709 61.697 64.52 60.55 64.52Z" fill="white"/>
        <path fill-rule="evenodd" clip-rule="evenodd" d="M37.1636 114C38.1126 114 38.8818 114.769 38.8818 115.718C38.8818 118.598 39.6438 121.126 40.785 122.881C41.9367 124.653 43.3268 125.454 44.6091 125.454C45.558 125.454 46.3273 126.224 46.3273 127.173C46.3273 128.122 45.558 128.891 44.6091 128.891C43.3268 128.891 41.9367 129.692 40.785 131.464C39.6438 133.22 38.8818 135.747 38.8818 138.627C38.8818 139.576 38.1126 140.345 37.1636 140.345C36.2147 140.345 35.4455 139.576 35.4455 138.627C35.4455 135.747 34.6835 133.22 33.5423 131.464C32.3905 129.692 31.0004 128.891 29.7182 128.891C28.7693 128.891 28 128.122 28 127.173C28 126.224 28.7693 125.454 29.7182 125.454C31.0004 125.454 32.3905 124.653 33.5423 122.881C34.6835 121.126 35.4455 118.598 35.4455 115.718C35.4455 114.769 36.2147 114 37.1636 114ZM37.1636 123.457C36.9368 123.911 36.6897 124.345 36.4235 124.754C35.8252 125.675 35.1083 126.503 34.2896 127.173C35.1083 127.842 35.8252 128.671 36.4235 129.591C36.6897 130.001 36.9368 130.434 37.1636 130.888C37.3904 130.434 37.6376 130.001 37.9038 129.591C38.502 128.671 39.219 127.842 40.0377 127.173C39.219 126.503 38.502 125.675 37.9038 124.754C37.6376 124.345 37.3904 123.911 37.1636 123.457Z" fill="white"/>
        <path fill-rule="evenodd" clip-rule="evenodd" d="M27.7364 33C28.6853 33 29.4545 33.7693 29.4545 34.7182C29.4545 37.7475 30.2762 40.4124 31.5145 42.2697C32.7607 44.139 34.2936 45.0273 35.7545 45.0273C36.7035 45.0273 37.4727 45.7965 37.4727 46.7455C37.4727 47.6944 36.7035 48.4636 35.7545 48.4636C34.2936 48.4636 32.7607 49.3519 31.5145 51.2212C30.2762 53.0785 29.4545 55.7434 29.4545 58.7727C29.4545 59.7216 28.6853 60.4909 27.7364 60.4909C26.7874 60.4909 26.0182 59.7216 26.0182 58.7727C26.0182 55.7434 25.1965 53.0785 23.9583 51.2212C22.7121 49.3519 21.1791 48.4636 19.7182 48.4636C18.7693 48.4636 18 47.6944 18 46.7455C18 45.7965 18.7693 45.0273 19.7182 45.0273C21.1791 45.0273 22.7121 44.139 23.9583 42.2697C25.1965 40.4124 26.0182 37.7475 26.0182 34.7182C26.0182 33.7693 26.7874 33 27.7364 33ZM27.7364 42.5691C27.4596 43.136 27.1526 43.6732 26.8175 44.1758C26.1591 45.1634 25.3711 46.0435 24.474 46.7455C25.3711 47.4474 26.1591 48.3275 26.8175 49.3151C27.1526 49.8177 27.4596 50.3549 27.7364 50.9218C28.0131 50.3549 28.3202 49.8177 28.6552 49.3151C29.3136 48.3275 30.1016 47.4474 30.9987 46.7455C30.1016 46.0435 29.3136 45.1634 28.6552 44.1758C28.3202 43.6732 28.0131 43.136 27.7364 42.5691Z" fill="white"/>
        <path fill-rule="evenodd" clip-rule="evenodd" d="M132.5 30C133.185 30 133.739 30.5291 133.739 31.1818C133.739 34.2445 134.609 36.9639 135.951 38.883C137.298 40.8104 139.023 41.8182 140.761 41.8182C141.445 41.8182 142 42.3473 142 43C142 43.6527 141.445 44.1818 140.761 44.1818C139.023 44.1818 137.298 45.1896 135.951 47.117C134.609 49.0361 133.739 51.7555 133.739 54.8182C133.739 55.4709 133.185 56 132.5 56C131.816 56 131.261 55.4709 131.261 54.8182C131.261 51.7555 130.391 49.0361 129.049 47.117C127.702 45.1896 125.977 44.1818 124.239 44.1818C123.555 44.1818 123 43.6527 123 43C123 42.3473 123.555 41.8182 124.239 41.8182C125.977 41.8182 127.702 40.8104 129.049 38.883C130.391 36.9639 131.261 34.2445 131.261 31.1818C131.261 30.5291 131.816 30 132.5 30ZM132.5 37.6408C132.116 38.5674 131.649 39.425 131.111 40.1941C130.317 41.331 129.344 42.3013 128.231 43C129.344 43.6987 130.317 44.669 131.111 45.8059C131.649 46.575 132.116 47.4326 132.5 48.3592C132.885 47.4326 133.351 46.575 133.889 45.8059C134.683 44.669 135.657 43.6987 136.77 43C135.657 42.3013 134.683 41.331 133.889 40.1941C133.351 39.425 132.885 38.5674 132.5 37.6408Z" fill="white"/>
        <path fill-rule="evenodd" clip-rule="evenodd" d="M57.5 136C57.966 136 58.3437 136.38 58.3437 136.848C58.3437 138.269 58.7179 139.516 59.2783 140.383C59.8439 141.257 60.5265 141.652 61.1562 141.652C61.6222 141.652 62 142.032 62 142.5C62 142.969 61.6222 143.348 61.1562 143.348C60.5265 143.348 59.8439 143.743 59.2783 144.618C58.7179 145.484 58.3437 146.731 58.3437 148.152C58.3437 148.621 57.966 149 57.5 149C57.034 149 56.6563 148.621 56.6563 148.152C56.6563 146.731 56.2821 145.484 55.7217 144.618C55.156 143.743 54.4734 143.348 53.8438 143.348C53.3778 143.348 53 142.969 53 142.5C53 142.032 53.3778 141.652 53.8438 141.652C54.4734 141.652 55.156 141.257 55.7217 140.383C56.2821 139.516 56.6563 138.269 56.6563 136.848C56.6563 136.38 57.034 136 57.5 136ZM57.5 140.667C57.3886 140.891 57.2673 141.105 57.1365 141.307C56.8427 141.761 56.4907 142.17 56.0886 142.5C56.4907 142.831 56.8427 143.239 57.1365 143.693C57.2673 143.896 57.3886 144.109 57.5 144.333C57.6114 144.109 57.7327 143.896 57.8635 143.693C58.1572 143.239 58.5093 142.831 58.9114 142.5C58.5093 142.17 58.1572 141.761 57.8635 141.307C57.7327 141.105 57.6114 140.891 57.5 140.667Z" fill="white"/>
    </g>
    <defs>
        <clipPath id="clip0_823_1752">
            <rect width="160" height="160" fill="white"/>
        </clipPath>
    </defs>
</svg>
