<svg width="160" height="160" viewBox="0 0 160 160" fill="none" xmlns="http://www.w3.org/2000/svg">
    <rect width="160" height="160" rx="80" fill="#5D1049"/>
    <path d="M59.7428 32C59.3016 31.9978 58.8783 32.1729 58.5664 32.4847C58.2539 32.7965 58.0795 33.2199 58.0817 33.6611V62.6284C58.0854 63.5424 58.8287 64.2806 59.7427 64.2769H65.5326V69.7883H36.6485C35.7345 69.792 34.9963 70.5361 35 71.4501V83.3855C34.9963 84.2995 35.7345 85.0436 36.6485 85.0465H40.6215V124.696L36.6485 124.696C36.5916 124.693 36.5347 124.693 36.477 124.696C35.617 124.804 34.986 125.559 35.031 126.425C35.0761 127.291 35.7818 127.975 36.6485 127.993H129.335H129.334C129.798 128.035 130.256 127.88 130.6 127.567C130.943 127.253 131.138 126.81 131.138 126.345C131.138 125.88 130.943 125.437 130.6 125.123C130.256 124.809 129.798 124.654 129.334 124.696H125.361V85.0473H129.334V85.0465C129.775 85.0487 130.2 84.8744 130.511 84.5618C130.823 84.25 130.998 83.8266 130.996 83.3855V71.4501C130.998 71.009 130.823 70.5856 130.511 70.2738C130.2 69.9612 129.775 69.7869 129.334 69.7883H100.45V64.2769H106.253C107.162 64.2732 107.898 63.5373 107.902 62.6284V33.6611C107.906 32.7471 107.167 32.0037 106.253 32L59.7428 32ZM61.3912 35.3103H104.593V60.9674H61.3931L61.3912 35.3103ZM85.2646 38.9759C83.4935 38.9759 81.7202 39.6372 80.3768 40.9806L75.832 45.5254C73.1454 48.212 73.1454 52.6114 75.832 55.298C78.5186 57.9846 82.921 57.9846 85.6076 55.298L90.1524 50.7532C92.839 48.0666 92.839 43.6768 90.1524 40.991C88.8091 39.6477 87.0357 38.9769 85.2646 38.9769V38.9759ZM85.2646 42.2506C86.1779 42.2506 87.0904 42.6089 87.8057 43.3235C89.2362 44.754 89.2362 46.9876 87.8057 48.4182L86.7033 49.5169L81.6182 44.429L82.7236 43.3236C83.4389 42.6084 84.3514 42.25 85.2647 42.2507L85.2646 42.2506ZM79.2841 46.7629L84.3625 51.8546L83.2601 52.9533C81.8296 54.3838 79.6084 54.3838 78.178 52.9533C76.7476 51.5229 76.7476 49.2988 78.178 47.8683L79.2841 46.7629ZM68.8436 64.2776H97.1432V69.7891H68.8436V64.2776ZM38.2987 73.0993H127.688V81.7369H38.2987V73.0993ZM43.9334 85.0472H122.053V124.696L78.1783 124.697V95.5707C78.1775 95.131 78.0017 94.7099 77.6899 94.4003C77.3781 94.0907 76.9561 93.917 76.5165 93.9185H53.6456C53.5917 93.9163 53.5378 93.9163 53.4838 93.9185C52.6363 94.0035 51.9913 94.7187 51.9935 95.5707V124.697H43.9314L43.9334 85.0472ZM88.7124 93.9177C87.8678 94.0078 87.2287 94.7208 87.2316 95.5698V113.602H85.9511C85.5063 113.591 85.0756 113.761 84.7571 114.073C84.4386 114.385 84.2591 114.811 84.2591 115.257C84.2591 115.702 84.4386 116.129 84.7571 116.441C85.0756 116.752 85.5063 116.922 85.9511 116.912H112.304C112.75 116.922 113.181 116.752 113.499 116.441C113.818 116.129 113.997 115.702 113.997 115.257C113.997 114.811 113.818 114.385 113.499 114.073C113.181 113.761 112.75 113.591 112.304 113.602H111.022V95.5698C111.02 95.1302 110.845 94.709 110.533 94.3994C110.221 94.0898 109.8 93.9162 109.36 93.9177H88.8838C88.8261 93.9147 88.7692 93.9147 88.7123 93.9177H88.7124ZM55.3093 97.2309H74.8699V124.696H55.3093V97.2309ZM90.5321 97.2309H107.71V113.601L90.5321 113.602V97.2309Z" fill="white"/>
    <path fill-rule="evenodd" clip-rule="evenodd" d="M28.1636 94.4C29.1126 94.4 29.8818 95.1693 29.8818 96.1182C29.8818 98.998 30.6438 101.526 31.785 103.281C32.9367 105.053 34.3268 105.855 35.6091 105.855C36.558 105.855 37.3273 106.624 37.3273 107.573C37.3273 108.522 36.558 109.291 35.6091 109.291C34.3268 109.291 32.9367 110.092 31.785 111.864C30.6438 113.62 29.8818 116.148 29.8818 119.027C29.8818 119.976 29.1126 120.745 28.1636 120.745C27.2147 120.745 26.4455 119.976 26.4455 119.027C26.4455 116.148 25.6835 113.62 24.5423 111.864C23.3905 110.092 22.0004 109.291 20.7182 109.291C19.7693 109.291 19 108.522 19 107.573C19 106.624 19.7693 105.855 20.7182 105.855C22.0004 105.855 23.3905 105.053 24.5423 103.281C25.6835 101.526 26.4455 98.998 26.4455 96.1182C26.4455 95.1693 27.2147 94.4 28.1636 94.4ZM28.1636 103.857C27.9368 104.311 27.6897 104.745 27.4235 105.154C26.8252 106.075 26.1083 106.903 25.2896 107.573C26.1083 108.242 26.8252 109.071 27.4235 109.991C27.6897 110.401 27.9368 110.834 28.1636 111.288C28.3904 110.834 28.6376 110.401 28.9038 109.991C29.502 109.071 30.219 108.242 31.0377 107.573C30.219 106.903 29.502 106.075 28.9038 105.154C28.6376 104.745 28.3904 104.311 28.1636 103.857Z" fill="white"/>
    <path fill-rule="evenodd" clip-rule="evenodd" d="M38.3365 35.2C39.2854 35.2 40.0546 35.9692 40.0546 36.9181C40.0546 39.9475 40.8763 42.6123 42.1145 44.4696C43.3608 46.3389 44.8937 47.2272 46.3546 47.2272C47.3036 47.2272 48.0728 47.9965 48.0728 48.9454C48.0728 49.8943 47.3036 50.6636 46.3546 50.6636C44.8937 50.6636 43.3608 51.5519 42.1145 53.4212C40.8763 55.2785 40.0546 57.9433 40.0546 60.9727C40.0546 61.9216 39.2854 62.6909 38.3365 62.6909C37.3875 62.6909 36.6183 61.9216 36.6183 60.9727C36.6183 57.9433 35.7966 55.2785 34.5584 53.4212C33.3122 51.5519 31.7792 50.6636 30.3183 50.6636C29.3694 50.6636 28.6001 49.8943 28.6001 48.9454C28.6001 47.9965 29.3694 47.2272 30.3183 47.2272C31.7792 47.2272 33.3122 46.3389 34.5584 44.4696C35.7966 42.6123 36.6183 39.9475 36.6183 36.9181C36.6183 35.9692 37.3875 35.2 38.3365 35.2ZM38.3365 44.769C38.0597 45.336 37.7527 45.8732 37.4176 46.3758C36.7592 47.3633 35.9712 48.2434 35.0741 48.9454C35.9712 49.6474 36.7592 50.5275 37.4176 51.515C37.7527 52.0176 38.0597 52.5548 38.3365 53.1218C38.6132 52.5548 38.9203 52.0176 39.2553 51.515C39.9137 50.5275 40.7017 49.6474 41.5988 48.9454C40.7017 48.2434 39.9137 47.3633 39.2553 46.3758C38.9203 45.8732 38.6132 45.336 38.3365 44.769Z" fill="white"/>
    <path fill-rule="evenodd" clip-rule="evenodd" d="M128.173 27.2C129.122 27.2 129.891 27.9692 129.891 28.9181C129.891 33.3709 131.097 37.3243 132.957 40.1144C134.825 42.9166 137.217 44.3818 139.627 44.3818C140.576 44.3818 141.345 45.151 141.345 46.1C141.345 47.0489 140.576 47.8181 139.627 47.8181C137.217 47.8181 134.825 49.2833 132.957 52.0855C131.097 54.8756 129.891 58.829 129.891 63.2818C129.891 64.2307 129.122 65 128.173 65C127.224 65 126.455 64.2307 126.455 63.2818C126.455 58.829 125.248 54.8756 123.388 52.0855C121.52 49.2833 119.128 47.8181 116.718 47.8181C115.769 47.8181 115 47.0489 115 46.1C115 45.151 115.769 44.3818 116.718 44.3818C119.128 44.3818 121.52 42.9166 123.388 40.1144C125.248 37.3243 126.455 33.3709 126.455 28.9181C126.455 27.9692 127.224 27.2 128.173 27.2ZM128.173 38.3084C127.64 39.6557 126.993 40.9024 126.247 42.0206C125.145 43.6735 123.796 45.0841 122.253 46.1C123.796 47.1158 125.145 48.5264 126.247 50.1793C126.993 51.2975 127.64 52.5442 128.173 53.8915C128.706 52.5442 129.353 51.2975 130.098 50.1793C131.2 48.5264 132.55 47.1158 134.093 46.1C132.55 45.0841 131.2 43.6735 130.098 42.0206C129.353 40.9024 128.706 39.6557 128.173 38.3084Z" fill="white"/>
</svg>
