<svg width="36" height="36" viewBox="0 0 36 36" fill="none" xmlns="http://www.w3.org/2000/svg">
    <path d="M28.5 12H7.5C5.01 12 3 14.01 3 16.5V22.5C3 24.15 4.35 25.5 6 25.5H9V28.5C9 30.15 10.35 31.5 12 31.5H24C25.65 31.5 27 30.15 27 28.5V25.5H30C31.65 25.5 33 24.15 33 22.5V16.5C33 14.01 30.99 12 28.5 12ZM22.5 28.5H13.5C12.675 28.5 12 27.825 12 27V21H24V27C24 27.825 23.325 28.5 22.5 28.5ZM28.5 18C27.675 18 27 17.325 27 16.5C27 15.675 27.675 15 28.5 15C29.325 15 30 15.675 30 16.5C30 17.325 29.325 18 28.5 18ZM25.5 4.5H10.5C9.675 4.5 9 5.175 9 6V9C9 9.825 9.675 10.5 10.5 10.5H25.5C26.325 10.5 27 9.825 27 9V6C27 5.175 26.325 4.5 25.5 4.5Z" fill="#6200EE"/>
</svg>
