<svg width="160" height="160" viewBox="0 0 160 160" fill="none" xmlns="http://www.w3.org/2000/svg">
    <rect width="160" height="160" rx="80" fill="#01A299"/>
    <path d="M126.555 90.8387H39.8451C37.284 90.8387 35.2 88.7547 35.2 86.1935V83.0968C35.2 80.5357 37.284 78.4516 39.8451 78.4516H126.555C129.116 78.4516 131.2 80.5357 131.2 83.0968V86.1935C131.2 88.7547 129.116 90.8387 126.555 90.8387ZM39.8451 81.5484C38.9921 81.5484 38.2967 82.2424 38.2967 83.0968V86.1935C38.2967 87.0479 38.9921 87.7419 39.8451 87.7419H126.555C127.408 87.7419 128.103 87.0479 128.103 86.1935V83.0968C128.103 82.2424 127.408 81.5484 126.555 81.5484H39.8451Z" fill="white"/>
    <path d="M126.555 128H39.8451V89.2903H42.9419V124.903H123.458V89.2903H126.555V128Z" fill="white"/>
    <path d="M78.5549 80H75.4581V73.4532C75.4581 71.5267 74.2471 69.7785 72.4437 69.1025L64.0762 65.9656L65.1628 63.0651L73.5303 66.202C76.5358 67.3308 78.555 70.2452 78.555 73.4532L78.5549 80Z" fill="white"/>
    <path d="M44.4903 80H41.3936V73.4532C41.3936 70.2452 43.4127 67.3308 46.4183 66.202L54.7858 63.0651L55.8724 65.9656L47.5049 69.1025C45.7015 69.7793 44.4904 71.5274 44.4904 73.4532L44.4903 80Z" fill="white"/>
    <path d="M59.9741 70.7097C56.5586 70.7097 53.7805 67.9316 53.7805 64.5161V61.4194H56.8773V64.5161C56.8773 66.2242 58.266 67.6129 59.9741 67.6129C61.6821 67.6129 63.0708 66.2242 63.0708 64.5161V61.4194H66.1676V64.5161C66.1676 67.9316 63.3895 70.7097 59.9741 70.7097Z" fill="white"/>
    <path d="M59.9742 64.5161C54.8507 64.5161 50.6838 60.3493 50.6838 55.2258V47.4839H53.7806V55.2258C53.7806 58.6413 56.5587 61.4194 59.9742 61.4194C63.3896 61.4194 66.1677 58.6413 66.1677 55.2258V47.4839H69.2645V55.2258C69.2645 60.3493 65.0976 64.5161 59.9742 64.5161Z" fill="white"/>
    <path d="M67.7161 58.3226V55.2258C69.4241 55.2258 70.8128 53.8371 70.8128 52.129C70.8128 50.421 69.4241 49.0323 67.7161 49.0323C65.305 49.0323 63.0383 48.0943 61.3351 46.3889L61.3227 46.3764C58.6019 48.1156 55.4664 49.0322 52.2321 49.0322C50.5241 49.0322 49.1353 50.4209 49.1353 52.129C49.1353 53.837 50.5241 55.2258 52.2321 55.2258V58.3225C48.8166 58.3225 46.0386 55.5445 46.0386 52.129C46.0386 48.7135 48.8166 45.9354 52.2321 45.9354C54.9652 45.9354 57.6101 45.1336 59.8827 43.6191L61.7194 42.3942L63.5249 44.1997C64.644 45.3188 66.1336 45.9354 67.716 45.9354C71.1315 45.9354 73.9095 48.7135 73.9095 52.1289C73.9095 55.5444 71.1315 58.3225 67.716 58.3225L67.7161 58.3226Z" fill="white"/>
    <path d="M73.9095 52.129H70.8128V45.9355C70.8128 39.9603 65.9505 35.0968 59.9741 35.0968C53.9976 35.0968 49.1353 39.9603 49.1353 45.9355V52.129H46.0386V45.9355C46.0386 38.2509 52.2909 32 59.9741 32C67.6572 32 73.9095 38.2509 73.9095 45.9355V52.129Z" fill="white"/>
    <path d="M69.2644 72.2581H72.3612V80H69.2644V72.2581Z" fill="white"/>
    <path d="M47.5872 72.2581H50.6839V80H47.5872V72.2581Z" fill="white"/>
    <path d="M103.329 80H100.232V66.0645H90.9419V80H87.8451V62.9677H103.329V80Z" fill="white"/>
    <path d="M115.716 80H112.619V69.1613H101.781V66.0645H115.716V80Z" fill="white"/>
    <path d="M111.071 121.806H101.781V112.516H92.4903V103.226H101.781V93.9355H111.071V103.226H120.361V112.516H111.071V121.806ZM104.877 118.71H107.974V109.419H117.264V106.323H107.974V97.0323H104.877V106.323H95.587V109.419H104.877V118.71Z" fill="white"/>
    <path d="M46.0387 93.9355H83.2V97.0323H46.0387V93.9355Z" fill="white"/>
    <path d="M80.1032 100.129H83.2V103.226H80.1032V100.129Z" fill="white"/>
    <path d="M52.2322 100.129H77.0064V103.226H52.2322V100.129Z" fill="white"/>
    <path d="M46.0387 100.129H49.1354V103.226H46.0387V100.129Z" fill="white"/>
    <path d="M46.0387 106.323H83.2V109.419H46.0387V106.323Z" fill="white"/>
    <path d="M131.2 59.871H81.6516V32H131.2V59.871ZM84.7483 56.7742H128.103V35.0968H84.7483V56.7742Z" fill="white"/>
    <path d="M103.329 58.3226H100.232V41.2903H90.9419V58.3226H87.8451V38.1935H103.329V58.3226Z" fill="white"/>
    <path d="M115.716 58.3226H112.619V44.3871H101.781V41.2903H115.716V58.3226Z" fill="white"/>
    <path d="M125.006 58.3226H121.91V47.4839H114.168V44.3871H125.006V58.3226Z" fill="white"/>
    <path fill-rule="evenodd" clip-rule="evenodd" d="M28.3636 94.4C29.3125 94.4 30.0818 95.1693 30.0818 96.1182C30.0818 98.998 30.8437 101.526 31.9849 103.281C33.1367 105.053 34.5268 105.855 35.809 105.855C36.758 105.855 37.5272 106.624 37.5272 107.573C37.5272 108.522 36.758 109.291 35.809 109.291C34.5268 109.291 33.1367 110.092 31.9849 111.864C30.8437 113.62 30.0818 116.148 30.0818 119.027C30.0818 119.976 29.3125 120.745 28.3636 120.745C27.4147 120.745 26.6454 119.976 26.6454 119.027C26.6454 116.148 25.8834 113.62 24.7423 111.864C23.5905 110.092 22.2004 109.291 20.9181 109.291C19.9692 109.291 19.2 108.522 19.2 107.573C19.2 106.624 19.9692 105.855 20.9181 105.855C22.2004 105.855 23.5905 105.053 24.7423 103.281C25.8834 101.526 26.6454 98.998 26.6454 96.1182C26.6454 95.1693 27.4147 94.4 28.3636 94.4ZM28.3636 103.857C28.1368 104.311 27.8896 104.745 27.6235 105.154C27.0252 106.075 26.3082 106.903 25.4896 107.573C26.3082 108.242 27.0252 109.071 27.6235 109.991C27.8896 110.401 28.1368 110.834 28.3636 111.288C28.5904 110.834 28.8375 110.401 29.1037 109.991C29.702 109.071 30.419 108.242 31.2376 107.573C30.419 106.903 29.702 106.075 29.1037 105.154C28.8375 104.745 28.5904 104.311 28.3636 103.857Z" fill="white"/>
    <path fill-rule="evenodd" clip-rule="evenodd" d="M25.7364 60.8C26.6853 60.8 27.4545 61.5693 27.4545 62.5182C27.4545 65.5476 28.2762 68.2124 29.5144 70.0697C30.7607 71.939 32.2936 72.8273 33.7545 72.8273C34.7035 72.8273 35.4727 73.5966 35.4727 74.5455C35.4727 75.4944 34.7035 76.2637 33.7545 76.2637C32.2936 76.2637 30.7607 77.152 29.5144 79.0213C28.2762 80.8786 27.4545 83.5434 27.4545 86.5728C27.4545 87.5217 26.6853 88.291 25.7364 88.291C24.7874 88.291 24.0182 87.5217 24.0182 86.5728C24.0182 83.5434 23.1965 80.8786 21.9583 79.0213C20.7121 77.152 19.1791 76.2637 17.7182 76.2637C16.7693 76.2637 16 75.4944 16 74.5455C16 73.5966 16.7693 72.8273 17.7182 72.8273C19.1791 72.8273 20.7121 71.939 21.9583 70.0697C23.1965 68.2124 24.0182 65.5476 24.0182 62.5182C24.0182 61.5693 24.7874 60.8 25.7364 60.8ZM25.7364 70.3691C25.4596 70.9361 25.1526 71.4733 24.8175 71.9759C24.1591 72.9634 23.3711 73.8435 22.474 74.5455C23.3711 75.2475 24.1591 76.1276 24.8175 77.1151C25.1526 77.6177 25.4596 78.1549 25.7364 78.7219C26.0131 78.1549 26.3202 77.6177 26.6552 77.1151C27.3136 76.1276 28.1016 75.2475 28.9987 74.5455C28.1016 73.8435 27.3136 72.9634 26.6552 71.9759C26.3202 71.4733 26.0131 70.9361 25.7364 70.3691Z" fill="white"/>
</svg>
