<svg width="36" height="36" viewBox="0 0 36 36" fill="none" xmlns="http://www.w3.org/2000/svg">
    <path d="M22.5 13.5H7.5V7.5H22.5V13.5ZM18 28.5C16.8065 28.5 15.6619 28.0259 14.818 27.182C13.9741 26.3381 13.5 25.1935 13.5 24C13.5 22.8065 13.9741 21.6619 14.818 20.818C15.6619 19.9741 16.8065 19.5 18 19.5C19.1935 19.5 20.3381 19.9741 21.182 20.818C22.0259 21.6619 22.5 22.8065 22.5 24C22.5 25.1935 22.0259 26.3381 21.182 27.182C20.3381 28.0259 19.1935 28.5 18 28.5ZM25.5 4.5H7.5C6.70435 4.5 5.94129 4.81607 5.37868 5.37868C4.81607 5.94129 4.5 6.70435 4.5 7.5V28.5C4.5 29.2956 4.81607 30.0587 5.37868 30.6213C5.94129 31.1839 6.70435 31.5 7.5 31.5H28.5C29.2956 31.5 30.0587 31.1839 30.6213 30.6213C31.1839 30.0587 31.5 29.2956 31.5 28.5V10.5L25.5 4.5Z" fill="white"/>
</svg>
